<svg width="93" height="157" viewBox="0 0 93 157" fill="none" xmlns="http://www.w3.org/2000/svg">
<path d="M83.6597 96.1006C79.1096 93.1154 75.2208 83.4903 73.8452 79.0509L79.7606 75.4936C83.9409 81.7373 86.1464 95.8433 83.6597 96.1006Z" fill="#C9B500"/>
<path d="M81.601 89.8565C78.3503 87.8909 75.8904 81.8293 75.0668 79.0442L79.6276 76.9923C82.4566 80.9669 83.4626 89.7608 81.601 89.8565Z" fill="#EED600"/>
<path d="M33.6532 6.76963C42.4544 7.81188 46.1684 8.92551 50.9081 16.0337C54.3863 21.2499 54.3367 24.3162 54.8125 30.1384C54.9266 34.4298 53.7257 37.8808 52.727 42.0218C53.4489 41.898 55.6317 40.6291 58.768 40.6291C60.3172 41.9027 61.1348 44.7413 62.598 45.8231C63.9047 46.2713 65.2798 46.4346 66.4044 47.0671C68.3257 48.157 71.2728 51.1766 72.859 52.8537C73.7024 53.7449 75.0689 55.1288 75.5573 56.2266C76.8955 60.3965 78.65 65.1558 79.036 68.8801C79.2116 70.6874 80.3761 73.6688 80.2542 74.9476C79.7499 79.2361 73.6326 80.6404 70.8522 78.933C69.9594 78.3854 69.3575 77.4766 68.5608 76.8253C68.0051 76.3737 67.725 76.519 66.9581 75.9702L64.3402 73.6664C64.2784 74.6481 64.2043 75.1301 63.2757 75.5924L64.7136 77.7866C65.7506 79.5333 66.5687 81.5084 66.7852 83.5334L67.7957 87.7187L70.5255 103.639C70.8951 105.774 72.7832 110.614 73.6052 112.874L78.3765 125.48L79.0596 127.281L79.4329 128.612C79.754 129.388 80.8 130.961 81.368 131.592C81.8965 132.18 82.763 132.983 82.9601 133.76C83.0771 134.216 82.9167 136.982 82.866 137.612C82.5463 141.574 82.1426 145.149 77.9129 146.723C76.8329 147.177 75.7627 147.389 74.6701 147.129C70.6325 146.153 70.9503 141.001 71.9163 137.92C72.3248 136.613 72.714 135.944 72.5043 134.507C72.1885 132.363 71.7322 132.779 70.7645 131.834C70.41 131.487 70.1392 131.016 69.8691 130.6L68.3916 127.89L65.245 122.327C62.854 117.859 60.8302 113.265 58.8455 108.605C56.8022 104.088 55.1488 99.5768 53.6758 94.847C53.5358 98.3599 54.05 101.867 54.4311 105.352C54.7017 109.735 56.6042 113.693 58.0626 117.805L61.155 126.69L62.2252 130.342C62.9082 132.116 66.7151 133.3 66.9483 135.982C67.0959 137.666 65.7363 140.392 65.1577 142.043C64.4097 144.178 65.0871 144.855 63.5089 147.556C62.4445 149.553 60.0408 150.612 57.965 150.365C55.8162 150.043 54.9563 148.189 54.6503 146.285C54.3459 144.375 55.2052 141.225 55.5211 139.162C55.659 138.267 55.9006 137.237 55.6544 136.35C55.0378 134.116 54.1224 134.472 53.1222 133.123L48.1797 125.079L43.4074 115.437L41.9115 112.206L39.363 103.054C37.9456 98.3669 37.2024 93.5038 35.5953 88.8814C35.3881 88.1501 34.7233 85.563 34.3956 85.0772C32.59 84.1228 31.6774 81.18 29.904 80.4692C25.2761 81.4638 25.105 78.8534 23.2893 78.3727C22.7866 78.3874 22.4739 79.058 22.3578 79.4702C22.2063 80.0157 22.3138 80.278 21.9103 80.8041C21.0648 81.91 18.8589 82.8753 18.046 81.2556C17.2456 81.3738 15.609 81.3772 14.8811 81.0559C13.1075 80.2717 11.9814 77.5256 11.6922 75.72C11.3433 73.6373 12.2024 71.4715 12.0409 70.6043C11.494 67.7607 13.3973 66.5083 15.2082 64.7056L23.3704 56.3848C24.3111 55.4247 26.9286 52.623 27.8537 52.0285L22.8547 51.3438L19.8061 51.8665L20.5129 52.9378C21.442 52.3079 23.1315 51.66 24.1673 51.9925C25.062 52.3096 25.4678 53.4571 24.7064 54.14C23.8405 54.9163 21.6511 55.1508 20.7255 54.4322L18.7253 52.3032C18.2982 52.04 17.8769 52.2041 17.4139 52.1494C16.8355 52.081 16.4469 51.8358 16.0363 51.4354C15.1409 50.5661 13.9408 48.2365 13.6768 46.9906C13.3006 45.2135 14.0823 43.3571 16.386 42.922C14.6632 39.6912 13.6579 34.4175 13.2244 33.0936C11.5614 32.84 8.09937 33.2074 6.47538 33.0936C5.55743 33.0263 3.7557 33.0716 3.43264 31.9816C3.22936 31.2932 3.78395 30.5947 4.22873 30.1384C5.48103 28.8633 6.77861 28.011 7.61529 27.0441L12.0409 25.2981C12.2707 22.9418 13.4168 19.5874 14.0823 17.3076C15.0333 14.0485 18.028 11.742 20.5129 9.43288C25.364 7.46419 29.2527 6.76963 33.6532 6.76963ZM26.2764 59.0983C23.4757 62.2937 19.3726 65.6342 17.3614 69.1289L19.0551 68.8385C21.2451 69.5927 23.4049 70.4278 25.5702 71.2483L25.364 62.9159L26.2764 59.0983Z" fill="#001222"/>
<path d="M37.2971 90.8562C37.1492 92.2695 37.6505 93.2821 37.936 94.5822L39.8476 101.925C40.6447 104.986 41.4698 108.038 42.2473 111.103C45.0705 118.139 48.6039 124.662 52.4724 131.142C52.8669 131.786 53.5394 132.996 54.2051 133.307C55.3683 133.911 57.8207 133.029 58.9115 132.5C59.6423 132.103 60.6948 131.522 61.1376 130.811C62.4288 130.152 58.4906 121.101 56.9184 116.607C53.7261 109.511 53.7764 105.13 52.6983 97.2812L52.3482 94.1187C49.8937 95.0638 48.4312 96.5711 46.5141 97.8186C47.7212 96.3865 50.171 93.9491 51.3939 93.0421C49.4998 93.0094 44.9363 92.5087 43.2454 92.2791C45.3081 92.2666 47.416 91.8935 49.2818 91.5907C52.582 91.0309 58.6641 88.4401 59.3744 88.2379C58.1563 89.0101 54.8303 91.163 53.6611 91.7115L57.1392 102.447C59.7323 109.449 62.8156 116.246 66.3209 122.84L69.2851 128.26C69.6242 128.895 70.5079 130.653 70.9899 131.057C71.5402 131.518 72.1778 131.416 72.8297 131.313C74.498 131.046 78.4677 129.957 78.5507 127.891C78.5714 127.38 78.1766 126.552 77.9685 126.073L76.6685 122.984L72.5582 112.008C71.7043 109.558 70.1759 105.648 69.7608 103.247L67.1472 88.0044L66.6359 85.9999L66.2294 83.6288C58.3349 88.1492 49.1834 90.2189 41.4601 90.7125L37.2971 90.8562Z" fill="#293B52"/>
<path d="M44.2531 67.3475C44.8339 67.41 46.4126 67.9551 46.8052 67.5882C46.7994 63.8163 46.6152 60.1731 46.7738 56.6291C47.266 60.4688 47.5069 64.011 47.944 67.8668C49.6088 68.6834 51.2235 68.9847 52.402 70.1344C49.7157 69.2753 45.6544 67.9543 42.9853 68.0879C43.6395 69.3098 44.3244 70.4162 44.2414 71.8824L43.8033 73.8753C46.2182 74.5665 50.7816 76.6783 53.1286 75.3887C54.5185 74.6252 54.7759 72.1947 54.9678 70.7405C55.5429 65.6188 55.2886 61.6497 54.9628 56.6197C54.4548 54.4431 52.8759 52.6857 50.8523 51.6434C49.3605 52.698 46.6374 55.3252 46.3175 56.1843C45.3722 59.8578 44.845 63.6073 44.2531 67.3475Z" fill="#293B52"/>
<path d="M16.1959 29.7931L15.3077 30.0606L14.2138 30.4346L14.2138 31.347C14.2138 31.347 13.9157 32.0514 14.2138 33.65C14.5118 35.2485 14.9898 37.1361 14.9898 37.1361C15.617 39.3693 16.5052 41.8814 17.5992 43.7299C18.6931 45.5785 19.7908 46.9673 21.2873 48.3234C25.0304 51.212 26.6258 51.1173 30.4556 50.9333C33.8154 50.8633 37.6337 49.8612 39.3361 47.819C39.5535 47.5495 39.9683 47.0814 40.0915 46.7756C39.9781 45.0298 38.5545 43.1696 38.6754 41.2808C38.8798 39.4227 41.4866 35.6522 41.3253 33.3297C40.9638 31.6108 40.0343 28.0968 38.9464 27.3551C36.8298 26.9267 36.6194 26.6221 30.5509 26.8098C30.3566 26.8098 30.2487 26.8098 30.2487 26.8098L29.8709 26.8098C29.8709 26.8098 29.6491 26.822 29.1207 26.8796C24.9879 27.3302 21.6038 27.6638 16.1959 29.7931Z" fill="#FFC3A3"/>
<path d="M24.3015 39.1671C25.0597 36.7388 24.2075 32.7856 23.6866 31.9033C21.6962 31.4737 15.7016 32.8472 15.5457 34.1892C15.3898 35.5313 18.6443 34.6129 19.2854 34.4607C20.9107 33.8191 22.1983 34.5872 22.8557 35.5137C23.3817 36.2549 23.2708 37.5234 23.6865 41.5628C24.0929 40.2227 24.0746 39.1691 24.3015 39.1671Z" fill="#FE8271"/>
<path d="M23.9446 43.1008C27.3335 44.0692 28.9878 42.3443 29.3913 41.3608L29.6465 41.6853C29.9324 43.46 28.5868 44.2761 27.8783 44.4624C24.7315 45.8543 23.9447 44.1346 23.9446 43.1008Z" fill="#FE8271"/>
<path d="M33.0176 46.2544C30.7675 47.6352 27.4715 48.15 25.6431 47.6352" stroke="#FE8271" stroke-width="0.909519" stroke-linecap="round"/>
<path d="M28.0148 48.4463C29.2843 48.4262 29.9849 48.1829 30.5576 48.1063C30.5302 48.3797 30.2374 48.9891 29.286 49.2394C28.3345 49.4897 28.0421 48.815 28.0148 48.4463Z" fill="#FE8271"/>
<path d="M22.5251 32.2168C20.337 31.9539 18.0255 32.7205 16.345 34.8757" stroke="#741919" stroke-width="1.81904" stroke-linecap="round"/>
<path d="M35.0541 30.178C33.4499 29.0108 31.2967 28.5983 29.0297 29.5542" stroke="#FE8271" stroke-width="1.81904" stroke-linecap="round"/>
<path d="M35.4807 29.1382C33.5217 28.1288 31.0879 28.0411 28.7613 29.4749" stroke="#741919" stroke-width="1.81904" stroke-linecap="round"/>
<path d="M32.4433 32.57C33.7015 31.5219 34.8871 32.222 35.6033 33.0906C36.0136 33.5882 35.9722 34.2856 35.674 34.8574C35.3402 35.4974 34.6684 35.8889 33.947 35.8637L33.1877 35.8371C31.7365 35.1027 31.0301 33.7472 32.4433 32.57Z" fill="#001222"/>
<path d="M19.9622 36.2546C18.4389 36.1615 17.9347 37.3414 17.8759 38.389C17.8423 38.989 18.2581 39.49 18.7975 39.755C19.4013 40.0515 20.1218 39.9749 20.6498 39.558L21.2054 39.1192C21.8903 37.7669 21.673 36.3591 19.9622 36.2546Z" fill="#001222"/>
<path d="M72.6457 132.028L73.2288 135.429L72.2515 139.257L71.9496 141.433C73.3089 141.825 73.9977 141.744 75.1675 140.881C75.5645 140.634 75.8665 140.402 76.0892 139.961L77.1779 135.972C77.6714 134.446 78.179 133.41 77.1603 131.965C76.9712 131.696 76.7213 131.355 76.4077 131.226C75.7831 130.967 74.6132 131.607 73.9597 131.803L72.6457 132.028Z" fill="#FF4D00"/>
<path d="M55.3562 134.135C56.3382 135.743 56.7107 137.304 56.3954 139.187L55.9918 141.174C55.8885 141.906 55.2039 144.014 55.6837 144.485C56.1093 144.902 56.68 144.66 57.1209 144.427C58.2627 143.825 58.6884 143.512 59.0338 142.221C59.3624 140.984 60.0865 137.673 59.8655 136.499C59.629 135.239 59.0225 134.315 58.3466 133.273L55.3562 134.135Z" fill="#FF4D00"/>
<path d="M78.5539 129.111C77.9052 129.974 77.8287 130.088 76.8942 130.616C77.326 131.224 77.8812 131.797 78.169 132.49C78.891 134.219 77.7978 135.866 77.385 137.506C76.9747 139.136 77.1052 140.214 75.6052 141.4C74.1943 142.514 73.4779 142.251 71.9202 142.278C72.1069 143.367 72.3091 144.729 73.1263 145.551C74.993 147.426 78.9164 145.885 80.3892 144.175C81.5119 142.874 81.6875 141.154 81.9044 139.52C82.059 138.348 82.3737 135.128 82.1493 134.074C81.8982 132.895 80.9121 132.168 80.1989 131.27C79.663 130.595 79.1631 129.613 78.5539 129.111Z" fill="#F2003A"/>
<path d="M58.9953 132.988C59.4466 133.963 60.2531 135.176 60.5347 136.21C60.7711 137.068 60.4364 138.322 60.2954 139.215C59.9624 141.332 59.7732 143.99 57.5587 144.945C56.6175 145.393 56.3623 145.43 55.357 145.322C55.5182 146.262 55.6293 147.693 56.2578 148.45C57.7061 150.197 61.1004 149.494 62.4192 147.88C63.7633 146.235 63.77 144.636 64.2269 142.725C64.5415 141.407 64.8994 140.626 65.3507 139.395C65.7246 138.374 66.4056 137.047 66.0468 135.963C65.1246 133.178 63.5161 133.302 61.8406 131.279L58.9953 132.988Z" fill="#F2003A"/>
<path d="M55.5625 93.6518C58.4724 96.2371 61.0184 99.5435 63.0342 102.657C59.955 99.903 57.6749 96.7928 55.5625 93.6518Z" fill="#001222"/>
<path d="M35.7567 86.9359C35.8815 87.5805 36.4059 89.7449 36.9195 90.0756C46.0832 91.4566 57.6944 87.11 64.5193 83.8627C65.4879 83.3589 66.2231 83.2028 65.9039 81.9411C65.7904 81.4933 65.4189 80.2325 64.992 80.0421C55.6456 83.9704 44.478 86.6269 35.7567 86.9359Z" fill="#001222"/>
<path d="M33.5641 83.3646L34.3723 84.2845L34.3011 83.2812L33.5641 83.3646Z" fill="#7E8695"/>
<path d="M42.5841 78.966L41.1301 80.0141C40.313 82.053 39.858 84.2046 39.3133 86.3262C40.1408 86.2829 42.9259 85.8994 44.361 85.6472C43.7205 83.3373 43.1577 80.8896 42.5841 78.966Z" fill="#293B52"/>
<path d="M37.7791 78.3951C37.35 80.9449 36.0025 84.1275 36.0083 86.3698L38.56 86.0998C39.2614 83.5483 39.9559 81.9752 40.4696 79.8515C38.5133 79.087 39.791 78.6065 37.7791 78.3951Z" fill="#001222"/>
<path d="M78.5663 71.227C78.1602 72.517 77.732 73.0809 76.7793 74.0232C74.671 76.1124 72.2076 76.4893 69.3531 76.4679C70.9202 79.1092 74.5852 79.6208 77.1349 78.1307C78.843 77.1304 79.7605 76.3083 79.4278 74.2174C79.2774 73.2775 79.2175 71.9346 78.5663 71.227Z" fill="#F2003A"/>
<path d="M48.3909 76.227C51.7212 78.3086 55.2553 80.0023 58.882 81.489C60.5771 81.0486 62.1792 80.3312 63.8032 79.6863C60.2369 78.8337 57.3433 77.8219 54.2739 75.9667L51.2431 76.5926L48.3909 76.227Z" fill="#001222"/>
<path d="M41.5293 76.8804L39.8696 78.3854C41.068 79.9254 42.8795 78.0021 41.5293 76.8804Z" fill="#7E8695"/>
<path d="M45.8165 75.4479L49.1654 84.8112C51.0661 84.3946 56.3306 82.826 57.9093 81.9172C53.7913 79.9203 49.8055 77.6856 45.8165 75.4479Z" fill="#293B52"/>
<path d="M20.7752 78.87C20.4355 80.0825 19.9093 80.3771 18.8639 80.9411C20.2521 81.9078 22.3399 80.1864 20.7752 78.87Z" fill="#7E8695"/>
<path d="M34.324 76.5467C34.5559 79.468 34.9715 82.3566 35.4663 85.2423L37.271 78.4822C35.4498 77.9371 35.629 77.6483 34.324 76.5467Z" fill="#293B52"/>
<path d="M42.4537 74.1067C42.527 77.803 43.7895 81.1701 44.9313 85.5372C46.6537 85.2276 47.2965 85.2467 48.6573 84.8983C47.5283 81.5983 46.2086 77.6396 45.253 75.2326C44.8109 74.7071 43.134 74.2012 42.4537 74.1067Z" fill="#293B52"/>
<path d="M32.9302 74.5192C32.3843 76.1854 31.8427 77.8281 31.0296 79.378C30.7282 80.6187 32.9455 83.3944 33.9245 82.7886C34.472 80.822 34.0945 75.7171 32.9302 74.5192Z" fill="#7E8695"/>
<path d="M23.1119 71.1469L23.1409 71.3163L23.2813 71.1179L23.1119 71.1469Z" fill="#001222"/>
<path d="M12.921 72.7198C12.0931 74.5794 12.7292 78.2098 14.221 79.6381C15.581 80.9407 18.4458 80.6885 19.7916 79.4696C20.7576 78.5942 19.3047 77.9294 18.8062 77.2896L17.026 74.8075C16.4776 74.5283 14.8335 74.8537 14.1744 74.9457L12.921 72.7198Z" fill="#334A68"/>
<path d="M32.8526 69.9997C33.3973 69.6973 33.3825 69.6548 33.3848 69.0367C32.8409 69.3397 32.855 69.3823 32.8526 69.9997Z" fill="#334A68"/>
<path d="M56.249 65.1164C56.217 68.6551 55.6464 71.8848 54.8817 75.2815C57.4075 77.3178 61.6173 78.8142 64.7903 79.3427C62.419 76.1813 59.9982 73.0613 57.5195 69.9844L56.249 65.1164Z" fill="#293B52"/>
<path d="M36.9076 67.2123C37.2161 67.9549 37.7797 68.7 37.6463 69.5264C37.4161 70.9484 35.72 72.702 34.014 70.6722C33.7638 70.9719 33.6487 71.0522 33.5492 71.4568C33.1377 73.1243 34.8134 76.4942 36.2562 77.3228C36.9752 77.7348 37.7791 77.5812 38.5552 77.5524C39.6415 77.5126 40.1735 77.6045 40.8979 76.5827C41.5112 75.7188 41.9368 72.8632 42.0419 71.7365L42.644 73.3767C44.3394 72.4655 42.95 68.7232 41.7011 67.8777C40.5263 67.127 38.2921 67.3357 36.9076 67.2123Z" fill="#334A68"/>
<path d="M17.1746 70.0727C17.8011 72.0975 17.5074 74.0153 18.752 75.9042C19.0092 76.296 19.5394 77.2429 20.0205 77.2926C20.5602 77.3498 20.8586 76.8942 20.8502 76.408L20.3232 74.2401C20.2343 73.2339 20.5942 72.8303 20.2861 70.9339C21.5041 72.3343 20.9499 73.0137 21.1533 74.2721L21.5599 76.6432C21.6083 77.6081 21.3399 77.4844 21.7623 78.5262C23.0911 77.014 22.1241 75.3382 21.796 73.6389L22.6186 74.3695C22.9983 73.2795 23.1178 71.9425 22.3294 70.9636C22.0045 70.561 21.4952 70.399 21.0337 70.2099C19.5062 69.579 18.7372 69.2927 17.1746 70.0727Z" fill="#334A68"/>
<path d="M36.2736 64.5315C35.8046 66.2682 36.3528 66.3438 37.8076 66.3606L36.2736 64.5315Z" fill="#293B52"/>
<path d="M36.6949 63.9362C37.3577 65.645 38.5993 66.5913 40.4355 66.433L40.3878 65.0465L38.2717 62.3766L36.6949 63.9362Z" fill="#001222"/>
<path d="M56.1374 59.3821L57.1932 64.4313L57.6958 66.4372L58.0733 68.639C58.3539 70.2124 59.175 70.743 60.1598 71.9424L62.1488 74.3805C62.3862 74.6362 62.7103 74.9816 63.0989 74.7966C63.5692 74.5695 63.6914 73.3718 63.5496 72.9302C63.4503 72.6164 63.2461 72.3911 63.0386 72.1462C61.8549 70.7555 59.2433 68.4247 58.5484 66.8141L56.9012 61.5176C56.6439 60.6485 56.7168 60.1565 56.1374 59.3821Z" fill="#4E5460"/>
<path d="M39.8737 61.1248L38.664 62.2039C39.0968 63.0403 39.8674 63.9555 40.7642 64.2846C40.7991 62.9629 40.7073 62.2337 39.8737 61.1248Z" fill="#293B52"/>
<path d="M41.2528 60.0165C40.4107 60.829 40.47 61.115 40.9238 62.165C41.2601 61.5326 41.5553 60.7009 41.2528 60.0165Z" fill="#293B52"/>
<path d="M26.5774 59.9178C25.9647 62.5161 25.8241 64.4526 26.257 67.1208C26.7096 65.9868 26.9465 63.0473 26.8969 61.7808C26.8525 61.1489 26.911 60.4729 26.5774 59.9178Z" fill="#7E8695"/>
<path d="M31.3329 59.1023C31.4848 59.694 31.8971 61.2842 32.5154 61.5025C32.7818 61.5827 32.8985 61.4804 33.1214 61.3986L31.3329 59.1023Z" fill="#293B52"/>
<path d="M45.5015 56.3241C44.902 56.7912 42.7297 58.6231 42.398 59.1594C41.7561 61.2859 40.8837 64.6657 41.0016 66.6845L43.8566 67.0666C44.6645 62.2502 45.0283 59.7716 45.5015 56.3241Z" fill="#001222"/>
<path d="M35.6734 56.9633C34.8207 57.9083 34.7824 58.0702 35.5138 59.0828C36.2942 58.3878 36.284 57.7882 35.6734 56.9633Z" fill="#293B52"/>
<path d="M52.8612 53.4934C50.8845 54.1585 49.6107 54.776 48.182 55.6904C49.1066 54.0364 51.1642 53.7843 52.8612 53.4934Z" fill="#001222"/>
<path d="M36.7232 58.0038C38.2738 57.2046 38.1194 56.8723 37.5603 55.7682C36.0774 56.077 36.4437 56.4009 36.7232 58.0038Z" fill="#293B52"/>
<path d="M29.6488 55.3812C29.0171 56.0704 27.4936 57.71 27.1027 58.5841C28.0805 63.0515 26.9639 66.473 26.248 71.3807C26.4582 71.7459 27.4749 72.1979 27.8543 72.3686C28.8831 72.8282 29.9198 73.2505 30.893 73.8225L26.4668 72.4111L23.3103 71.2872C24.1533 73.0782 22.9694 74.8121 23.0578 75.8634C23.3133 77.2906 25.2466 79.1085 26.4992 79.7054C27.7363 80.2601 29.9373 79.6478 30.6874 78.4969C31.0667 77.913 31.886 75.4358 32.1258 74.6572C32.6916 72.4163 32.1676 70.4487 32.4348 67.9792C32.3963 67.4089 32.0444 66.7196 31.9002 66.1531C31.5515 64.7781 32.1269 63.7416 31.9499 62.8321C30.6924 60.8009 30.7212 57.0204 29.6488 55.3812Z" fill="#293B52"/>
<path d="M31.2793 53.7069C30.9643 54.0259 30.4291 54.503 30.3259 54.9464C30.2258 55.3716 30.5679 56.1668 30.706 56.5947C31.2286 58.2206 32.2215 59.5991 33.3749 60.8443L35.233 59.4797L34.5507 58.5506L33.791 59.2039C33.434 58.0869 32.009 54.431 31.2793 53.7069Z" fill="#001222"/>
<path d="M44.4272 50.0577L44.3208 51.4707L45.8692 50.3335L44.4272 50.0577Z" fill="#293B52"/>
<path d="M51.4097 51.1269L55.1503 53.6237L55.5192 50.9453L55.7613 49.5091C55.7613 49.5091 55.2504 48.5478 54.7837 48.491C54.025 48.3985 51.4097 51.1269 51.4097 51.1269Z" fill="#4E5460"/>
<path d="M34.0669 57.7619C34.6657 57.3494 36.1103 55.9214 36.0439 55.1564C35.4137 53.9276 34.4081 52.8572 33.5586 51.747C31.3773 53.2808 33.1095 54.7082 34.0669 57.7619Z" fill="#293B52"/>
<path d="M62.1948 46.9205C61.4255 46.9463 60.1891 47.1304 59.485 47.3852C56.157 48.7996 55.788 52.0379 56.2873 55.1722L58.017 62.3723C58.3091 63.4051 58.9503 65.8217 59.3953 66.6689C60.1051 68.0209 62.5951 70.882 63.7142 72.0303C64.5414 72.8788 66.8384 75.2819 67.822 75.6321C68.3089 75.8068 69.5665 75.8213 70.1081 75.7863C71.0409 75.7257 72.3075 75.681 73.1857 75.4329C76.0485 74.6213 78.3029 72.2401 78.3741 69.168C78.3994 68.0569 77.4309 64.8582 77.1022 63.6328L74.9186 56.6848C74.023 54.9171 71.1662 52.0143 69.691 50.6075C68.7053 49.6678 66.5848 47.6722 65.385 47.2242C64.2474 46.801 63.3576 46.8589 62.1948 46.9205Z" fill="#4E5460"/>
<path d="M14.7357 74.1521L17.1067 73.7456L16.8971 71.6894C16.7299 70.7142 16.219 70.1726 16.6191 68.9476C17.1341 67.3671 20.0117 64.6965 21.2572 63.3811L27.9007 56.3715L32.1745 51.81C31.5729 51.5855 29.6334 51.6498 29.054 51.9127C28.5286 52.1532 27.8117 52.9524 27.3877 53.3792L24.1286 56.7411L15.8157 65.1994C14.8367 66.19 12.8772 67.8969 12.6928 69.2721C12.4906 70.7784 13.981 72.9201 14.7357 74.1521Z" fill="#7E8695"/>
<path d="M23.7563 52.6853C23.1465 52.6291 22.2883 52.7158 21.7595 53.0277C21.1609 53.4403 21.2548 53.9684 21.9488 54.132C22.7537 54.3216 25.4752 53.4802 23.7563 52.6853Z" fill="#001222"/>
<path d="M40.8363 49.4531C38.5014 50.7019 36.7645 50.8636 34.2069 51.4615C34.9548 52.2682 36.2419 54.5361 37.213 54.6543C38.7367 54.5135 40.9595 50.2716 40.8363 49.4531Z" fill="#F2003A"/>
<path d="M38.1508 55.1439L38.6928 56.2714C40.6304 55.064 45.2565 51.6919 42.9624 49.4495C42.7167 49.2234 42.3834 48.9878 42.0317 49.1053C41.5804 49.2574 41.2279 50.6889 41.0049 51.1677C40.252 52.7862 39.5371 53.9862 38.1508 55.1439Z" fill="#293B52"/>
<path d="M42.951 48.5676L43.7615 49.1873L46.9155 49.3193L49.9725 46.8127C47.2832 47.1192 45.4555 47.4735 42.951 48.5676Z" fill="#4E5460"/>
<path d="M39.254 49.3757C40.5141 49.099 41.724 48.5374 42.8348 47.89C42.4266 47.7577 41.0307 47.4134 40.6825 47.5392C40.0815 47.7554 39.5204 48.8248 39.254 49.3757Z" fill="#001222"/>
<path d="M56.2583 48.9009L58.7068 46.912C58.0588 45.5643 56.4735 43.4036 54.7228 44.0007C54.026 44.2387 53.7526 44.9319 53.2116 45.3752L51.639 46.3633L48.7434 48.7947C43.2722 53.4233 38.0413 57.1846 33.2241 62.6157C31.9774 64.8813 32.8415 67.0535 34.0598 69.0953C34.4505 69.7489 35.005 71.139 35.9473 70.7405C36.544 70.4878 37.1171 69.795 36.9699 69.1194C36.7316 68.0345 34.5095 66.2798 35.9044 63.9288C40.613 59.3506 45.709 55.1397 50.6583 50.8118C51.6366 49.8288 53.8094 47.6577 54.8368 47.7485C55.5062 47.8272 55.8773 48.4186 56.2583 48.9009Z" fill="#7E8695"/>
<path d="M18.3786 49.6426C18.8684 51.1052 19.1887 51.4603 20.6723 50.8184L18.3786 49.6426Z" fill="#334A68"/>
<path d="M54.4236 43.2879C55.8545 43.1733 56.7779 43.5258 57.7326 44.6382C58.0659 45.028 58.857 46.306 59.2387 46.4674C59.5359 46.5833 61.08 46.1564 61.5265 46.0751L58.5951 41.18C57.8343 41.2076 55.6474 41.2945 55.1026 41.7788C54.7433 42.1019 54.5547 42.833 54.4236 43.2879Z" fill="#4E5460"/>
<path d="M14.4071 44.7221C14.2571 46.8263 14.3888 47.5251 15.3845 49.2843C15.69 49.8232 16.4806 51.0095 17.0217 51.2789C17.3746 51.454 17.9424 51.4091 18.3301 51.3944L17.6199 48.7236L16.4708 43.3058L14.4071 44.7221Z" fill="#334A68"/>
<path d="M4.4804 31.6276C6.38721 32.3141 9.51441 32.3336 11.5163 31.9903C10.4452 30.8589 15.8038 28.9465 17.98 28.1933C24.1157 26.4249 29.1815 26.0015 35.4124 25.9548L39.316 26.3519C37.6428 25.0819 33.2911 24.6133 31.1531 24.5004C23.6115 24.4804 8.47913 24.1747 4.4804 31.6276Z" fill="#293B52"/>
<path d="M15.9889 24.6166C23.8314 23.4292 27.3839 23.8379 31.1686 23.8645L37.1379 24.6166C38.8039 24.8402 39.7547 25.9204 40.8065 27.2844C41.4274 28.953 41.1907 30.8803 41.7377 32.6839C42.4329 35.5204 39.1385 38.4701 39.6211 41.3748C39.7892 42.3786 40.3528 44.6792 41.2788 45.2061C45.1744 45.0722 47.937 45.2544 51.2646 43.084C52.0503 42.1993 52.5531 40.257 52.8951 39.0988C53.9526 35.5183 54.6162 30.1883 54.0274 26.4884C52.2695 18.2128 48.2422 11.1971 40.3609 8.53777C33.4063 6.65101 24.4133 7.95693 19.6259 11.3022C15.4869 14.3418 13.2519 20.4321 12.8421 24.6166C12.7251 25.9315 14.403 24.8567 15.9889 24.6166Z" fill="#293B52"/>
<path d="M22.5097 35.4402C18.4698 32.6733 14.4764 35.4025 12.9846 37.1129L13.0842 38.355C13.042 44.631 16.9155 45.5098 18.8575 45.1647C24.255 42.1865 23.5413 37.4408 22.5097 35.4402Z" stroke="black" stroke-width="0.727615"/>
<path d="M23.1241 37.4364C23.4655 37.1444 24.6163 36.534 26.4883 36.4288M26.4883 36.4288C28.8333 41.4233 33.5152 41.7292 35.6986 41.2009C41.3163 37.5686 38.9685 33.3252 37.0924 31.6575C31.6757 28.7282 27.3806 31.9438 25.9102 33.9178L26.0188 35.2725C26.1619 35.6833 26.319 36.0683 26.4883 36.4288Z" stroke="black" stroke-width="0.727615"/>
<path d="M38.7501 33.9107C40.5188 31.8749 44.5612 28.1493 46.5811 29.5328" stroke="black" stroke-width="0.727615"/>
<path d="M41.2836 11.3544C39.9298 11.9382 40.5526 13.8223 42.6748 15.5624C44.7964 17.3026 47.6139 18.2397 48.9673 17.6555C50.3211 17.0718 49.6984 15.1877 47.5762 13.4477C45.4545 11.7075 42.6371 10.7703 41.2836 11.3544Z" fill="#334A68"/>
</svg>
