<svg width="77" height="138" viewBox="0 0 77 138" fill="none" xmlns="http://www.w3.org/2000/svg">
<path d="M73.6133 83.0559C69.0632 80.0708 65.1744 70.4456 63.7988 66.0062L69.7142 62.4489C73.8946 68.6926 76.1 82.7986 73.6133 83.0559Z" fill="#C9B500"/>
<path d="M71.5546 76.8118C68.3039 74.8462 65.844 68.7846 65.0204 65.9995L69.5812 63.9477C72.4102 67.9222 73.4162 76.7161 71.5546 76.8118Z" fill="#EED600"/>
<path fill-rule="evenodd" clip-rule="evenodd" d="M43.9225 28.695C44.995 28.2828 46.7885 27.5938 49.0996 27.5938C49.8683 28.2257 50.4569 29.243 51.0336 30.2398C51.6192 31.2519 52.1925 32.2428 52.9297 32.7878C53.4023 32.9499 53.8838 33.0747 54.3592 33.198C55.1983 33.4155 56.0182 33.6281 56.736 34.0318C58.5646 35.0691 61.7014 38.6768 62.6743 39.7957C62.7236 39.8525 62.7674 39.9028 62.8052 39.9461C63.5874 40.8429 64.3147 41.8544 65.6467 43.8971C66.9786 45.9398 68.9816 52.1204 69.3676 55.8448C69.4463 56.6543 69.7234 57.6995 69.9944 58.7217C70.3284 59.9814 70.6531 61.2063 70.5858 61.9122C70.0815 66.2007 63.9643 67.6051 61.1838 65.8977C60.6565 65.5742 60.2306 65.1248 59.8062 64.6768C59.512 64.3663 59.2186 64.0566 58.8925 63.79C58.6195 63.5681 58.413 63.4903 58.1826 63.4035C57.9441 63.3136 57.6799 63.2141 57.2897 62.9349L54.6718 60.6311C54.61 61.6127 54.5359 62.0948 53.6073 62.557L55.0453 64.7512C56.0823 66.498 56.9004 68.473 57.1168 70.498L58.1274 74.6833L60.8571 90.6034C61.2268 92.739 62.3788 96.114 63.2008 98.3737L67.9312 105.677L71.7081 112.445L72.3913 114.245L72.7645 115.576C73.0856 116.353 74.1317 117.925 74.6996 118.557C75.1952 119.108 75.4499 120.12 75.6422 120.884C75.655 120.935 75.6675 120.985 75.6797 121.033C75.7968 121.489 75.6364 124.256 75.5857 124.885C75.5552 125.262 75.5295 125.634 75.5043 125.998C75.2654 129.454 75.0711 132.263 71.2446 133.688C70.1645 134.141 69.0944 134.353 68.0017 134.094C63.9641 133.118 64.2819 127.966 65.2479 124.885C65.3245 124.64 65.4003 124.417 65.4717 124.208C65.7812 123.3 66.0063 122.639 65.836 121.471C65.607 119.917 65.3043 119.709 64.7865 119.351C64.59 119.216 64.3624 119.059 64.0962 118.799C63.8034 118.512 63.5678 118.141 63.3424 117.786C63.2949 117.711 63.2478 117.637 63.2008 117.565L62.1089 115.54L56.8595 110.764L55.5766 109.292C54.3634 107.025 53.2448 104.725 52.1779 102.401C51.142 100.145 50.1548 97.8654 49.1771 95.57C47.1338 91.0523 45.4805 86.5414 44.0075 81.8116C43.8908 84.7406 44.2288 87.6654 44.5653 90.5771C44.6324 91.1576 44.6994 91.7376 44.7627 92.317C44.8883 94.3504 45.3652 96.2925 45.9861 98.2011C46.4102 99.5048 46.9014 100.793 47.3938 102.084C47.734 102.976 48.0748 103.869 48.3942 104.77L51.4866 113.654L52.5569 117.306C52.8394 118.041 53.6566 118.674 54.5343 119.353C55.7781 120.317 57.1432 121.374 57.2799 122.947C57.3917 124.222 56.6391 126.095 56.0159 127.646C55.8161 128.143 55.6297 128.607 55.4893 129.007C55.203 129.825 55.1255 130.429 55.0504 131.014C54.9294 131.958 54.8145 132.854 53.8406 134.52C52.7761 136.518 50.3724 137.576 48.2966 137.33C46.1478 137.007 45.2879 135.153 44.9819 133.25C44.758 131.844 45.164 129.768 45.52 127.947C45.6478 127.293 45.7692 126.672 45.8527 126.127C45.8732 125.994 45.896 125.857 45.9192 125.719C46.0518 124.928 46.1956 124.07 45.9861 123.315C45.5968 121.904 45.0885 121.526 44.5148 121.1C44.1798 120.851 43.8226 120.585 43.4538 120.088L38.5113 112.044L33.739 102.401L32.9911 100.786L32.2432 99.1709L29.6947 90.0191C29.0748 87.969 28.5838 85.8853 28.0931 83.8028C27.4619 81.1238 26.8312 78.4468 25.9269 75.846C25.892 75.7227 25.8441 75.5468 25.787 75.337C25.5052 74.3023 24.9997 72.4458 24.7272 72.0418C23.8513 71.5788 23.1855 70.6479 22.5297 69.7308C21.8336 68.7575 21.1487 67.7998 20.2356 67.4339C17.0952 68.1088 16.0071 67.1237 15.0646 66.2705C14.6182 65.8664 14.2045 65.4918 13.6209 65.3373C13.1182 65.352 12.8055 66.0227 12.6895 66.4348C12.6418 66.6063 12.6198 66.7497 12.5994 66.8822C12.555 67.1712 12.5186 67.4079 12.2419 67.7687C11.3965 68.8747 9.19058 69.8399 8.37763 68.2202C7.57727 68.3384 5.9406 68.3419 5.21272 68.0205C3.4391 67.2364 2.31306 64.4902 2.02386 62.6847C1.81401 61.432 2.04116 60.1493 2.22039 59.1372C2.33916 58.4665 2.4369 57.9146 2.37249 57.5689C1.90234 55.1242 3.24329 53.8555 4.77951 52.4021C5.03011 52.1651 5.2859 51.9231 5.53988 51.6702L13.702 43.3495C13.8716 43.1764 14.0957 42.9435 14.3545 42.6744C15.5314 41.4509 17.427 39.4805 18.1853 38.9931L43.0587 28.9865C43.2486 28.9539 43.5396 28.8421 43.9225 28.695ZM13.4325 49.3738C14.5527 48.2532 15.6557 47.1497 16.6082 46.0631L15.6958 49.8807L15.902 58.2131C15.5713 58.0878 15.2408 57.9621 14.9102 57.8365C13.0763 57.1394 11.2424 56.4423 9.38681 55.8033L7.69318 56.0937C9.02044 53.7874 11.2587 51.5483 13.4325 49.3738Z" fill="#001222"/>
<path d="M27.2505 77.8115C27.1026 79.2248 27.6038 80.2374 27.8893 81.5375L29.801 88.8808C30.598 91.9408 31.4232 94.9933 32.2007 98.0581C35.0238 105.095 38.5573 111.618 42.4258 118.098C42.8202 118.742 43.4927 119.951 44.1584 120.262C45.3217 120.867 47.774 119.984 48.8649 119.455C49.5956 119.059 50.6481 118.477 51.091 117.766C52.3822 117.108 48.444 108.056 46.8718 103.562C43.6795 96.4665 43.7298 92.085 42.6517 84.2365L42.3016 81.074C39.8471 82.0191 38.3846 83.5264 36.4675 84.7739C37.6746 83.3418 40.1244 80.9044 41.3472 79.9974C39.4532 79.9647 34.8897 79.4641 33.1988 79.2345C35.2615 79.222 37.3693 78.8489 39.2352 78.546C42.5354 77.9863 48.6175 75.3954 49.3278 75.1932C48.1097 75.9654 44.7837 78.1184 43.6144 78.6668L47.0925 89.4027C49.6857 96.4044 53.9722 106.81 56.2536 109.769L62.2385 115.215C62.5776 115.851 63.4613 117.608 63.9433 118.012C64.4936 118.474 65.1312 118.371 65.783 118.268C67.4514 118.001 71.421 116.913 71.504 114.847C71.5247 114.336 71.13 113.507 70.9219 113.029L69.6219 109.939L66.525 104.745L62.5116 98.9629C61.6576 96.5131 60.1293 92.6034 59.7141 90.2024L57.1005 74.9597L56.5893 72.9553L56.1828 70.5842C48.2883 75.1045 39.1368 77.1742 31.4135 77.6678L27.2505 77.8115Z" fill="#293B52"/>
<path d="M34.2067 54.3027C34.7875 54.3652 36.3662 54.9103 36.7588 54.5434C36.753 50.7715 36.5688 47.1283 36.7274 43.5843C37.2196 47.424 37.4605 50.9662 37.8976 54.822C39.5625 55.6386 41.1771 55.9399 42.3556 57.0896C39.6693 56.2305 35.608 54.9095 32.9389 55.0431C33.5932 56.265 34.278 57.3714 34.195 58.8376L33.7569 60.8305C36.1718 61.5217 40.7353 63.6335 43.0822 62.3439C44.4721 61.5804 44.7295 59.1499 44.9214 57.6957C45.4965 52.574 45.2423 48.6049 44.9164 43.5749C44.4084 41.3983 42.8295 39.6409 40.8059 38.5986C39.3141 39.6532 36.591 42.2804 36.2711 43.1395C35.3258 46.813 34.7987 50.5625 34.2067 54.3027Z" fill="#293B52"/>
<path d="M65.5994 118.984L66.1824 122.384L65.2052 126.213L64.9033 128.388C66.2625 128.781 66.9513 128.7 68.1212 127.836C68.5181 127.589 68.8201 127.358 69.0429 126.917L70.1315 122.927C70.625 121.401 71.1326 120.365 70.1139 118.921C69.9248 118.651 69.675 118.311 69.3613 118.181C68.7367 117.923 67.5668 118.563 66.9133 118.758L65.5994 118.984Z" fill="#FF4D00"/>
<path d="M45.3098 121.09C46.2918 122.698 46.6643 124.26 46.349 126.142L45.9454 128.129C45.8422 128.862 45.1576 130.97 45.6373 131.441C46.0629 131.857 46.6336 131.615 47.0745 131.382C48.2163 130.78 48.6421 130.467 48.9874 129.177C49.316 127.94 50.0401 124.629 49.8191 123.455C49.5827 122.195 48.9761 121.271 48.3002 120.229L45.3098 121.09Z" fill="#FF4D00"/>
<path d="M71.5073 116.066C70.8586 116.93 70.782 117.044 69.8476 117.571C70.2794 118.179 70.8346 118.752 71.1223 119.445C71.8444 121.174 70.7512 122.821 70.3384 124.461C69.9281 126.092 70.0585 127.17 68.5586 128.356C67.1477 129.469 66.4313 129.207 64.8736 129.234C65.0603 130.323 65.2624 131.685 66.0797 132.507C67.9464 134.382 71.8698 132.841 73.3425 131.131C74.4652 129.83 74.6408 128.11 74.8577 126.476C75.0124 125.304 75.3271 122.084 75.1027 121.029C74.8516 119.85 73.8655 119.123 73.1523 118.225C72.6164 117.55 72.1165 116.569 71.5073 116.066Z" fill="#7E8695"/>
<path d="M48.9487 119.943C49.4 120.919 50.2065 122.131 50.4881 123.166C50.7244 124.024 50.3898 125.277 50.2488 126.171C49.9157 128.287 49.7265 130.945 47.5121 131.9C46.5709 132.349 46.3157 132.386 45.3104 132.278C45.4716 133.218 45.5827 134.649 46.2111 135.406C47.6595 137.152 51.0538 136.45 52.3726 134.836C53.7167 133.19 53.7234 131.592 54.1802 129.681C54.4949 128.363 54.8528 127.582 55.3041 126.35C55.678 125.329 56.359 124.002 56.0002 122.918C55.078 120.134 53.4695 120.258 51.794 118.235L48.9487 119.943Z" fill="#7E8695"/>
<path d="M45.5161 80.607C48.426 83.1923 50.9721 86.4987 52.9878 89.6121C49.9087 86.8582 47.6285 83.748 45.5161 80.607Z" fill="#001222"/>
<path d="M25.7103 73.8911C25.8351 74.5357 26.3595 76.7001 26.8731 77.0308C36.0368 78.4118 47.648 74.0652 54.4729 70.8179C55.4415 70.3141 56.1767 70.158 55.8575 68.8963C55.744 68.4485 55.3725 67.1877 54.9456 66.9973C45.5992 70.9256 34.4316 73.5821 25.7103 73.8911Z" fill="#001222"/>
<path d="M23.5177 70.3199L24.3259 71.2398L24.2547 70.2365L23.5177 70.3199Z" fill="#7E8695"/>
<path d="M32.5378 65.9212L31.0837 66.9693C30.2666 69.0082 29.8116 71.1598 29.2669 73.2814C30.0944 73.2381 32.8795 72.8546 34.3147 72.6024C33.6742 70.2925 33.1113 67.8448 32.5378 65.9212Z" fill="#293B52"/>
<path d="M27.7327 65.3503C27.3036 67.9001 25.9561 71.0827 25.9619 73.325L28.5137 73.055C29.215 70.5035 29.9095 68.9304 30.4232 66.8067C28.4669 66.0422 29.7446 65.5617 27.7327 65.3503Z" fill="#001222"/>
<path d="M68.5199 58.1823C68.1138 59.4723 67.6856 60.0362 66.7329 60.9785C64.6246 63.0678 62.1612 63.4446 59.3067 63.4233C60.8738 66.0645 64.5388 66.5761 67.0885 65.0861C68.7966 64.0857 69.7141 63.2636 69.3814 61.1728C69.231 60.2329 69.1711 58.8899 68.5199 58.1823Z" fill="#F2003A"/>
<path d="M38.3445 63.1822C41.6749 65.2638 45.2089 66.9575 48.8356 68.4442C50.5307 68.0038 52.1328 67.2864 53.7568 66.6415C50.1905 65.7889 47.2969 64.7771 44.2275 62.9219L41.1967 63.5478L38.3445 63.1822Z" fill="#001222"/>
<path d="M31.4829 63.8356L29.8232 65.3406C31.0216 66.8806 32.8331 64.9573 31.4829 63.8356Z" fill="#7E8695"/>
<path d="M35.7701 62.4032L39.119 71.7665C41.0197 71.35 46.2842 69.7813 47.8629 68.8725C43.7449 66.8756 39.7591 64.6409 35.7701 62.4032Z" fill="#293B52"/>
<path d="M10.7286 65.8253C10.3889 67.0378 9.86266 67.3324 8.81725 67.8964C10.2055 68.8631 12.2933 67.1418 10.7286 65.8253Z" fill="#7E8695"/>
<path d="M24.2776 63.5021C24.5095 66.4233 24.9251 69.3119 25.4199 72.1977L27.2246 65.4375C25.4034 64.8924 25.5826 64.6036 24.2776 63.5021Z" fill="#293B52"/>
<path d="M32.4073 61.0621C32.4806 64.7583 33.7431 68.1254 34.8849 72.4925C36.6073 72.1829 37.2501 72.2021 38.6109 71.8537C37.4819 68.5536 36.1623 64.5949 35.2066 62.1879C34.7645 61.6624 33.0876 61.1566 32.4073 61.0621Z" fill="#293B52"/>
<path d="M22.8838 61.4744C22.3379 63.1406 21.7963 64.7833 20.9832 66.3332C20.6818 67.5739 22.8991 70.3496 23.8781 69.7438C24.4257 67.7772 24.0481 62.6723 22.8838 61.4744Z" fill="#7E8695"/>
<path d="M13.0655 58.1021L13.0946 58.2715L13.2349 58.0731L13.0655 58.1021Z" fill="#001222"/>
<path d="M2.87465 59.6751C2.04669 61.5347 2.68277 65.1651 4.17458 66.5934C5.53464 67.896 8.39943 67.6438 9.74521 66.4249C10.7113 65.5495 9.25832 64.8847 8.75983 64.2449L6.97959 61.7628C6.43118 61.4836 4.78715 61.8091 4.12803 61.901L2.87465 59.6751Z" fill="#334A68"/>
<path d="M22.8059 56.9549C23.3507 56.6525 23.3359 56.61 23.3382 55.9919C22.7943 56.2949 22.8083 56.3375 22.8059 56.9549Z" fill="#334A68"/>
<path d="M46.2024 52.0716C46.1703 55.6103 45.5998 58.84 44.8351 62.2367C47.3609 64.273 51.5707 65.7694 54.7437 66.2979C52.3724 63.1365 49.9516 60.0165 47.4729 56.9396L46.2024 52.0716Z" fill="#293B52"/>
<path d="M26.8612 54.1676C27.1697 54.9102 27.7333 55.6553 27.5999 56.4817C27.3697 57.9037 25.6736 59.6573 23.9676 57.6275C23.7174 57.9273 23.6023 58.0075 23.5028 58.4121C23.0913 60.0797 24.767 63.4495 26.2098 64.2782C26.9288 64.6901 27.7327 64.5366 28.5089 64.5077C29.5952 64.4679 30.1271 64.5598 30.8515 63.5381C31.4648 62.6742 31.8904 59.8185 31.9955 58.6918L32.5976 60.332C34.293 59.4208 32.9036 55.6785 31.6547 54.833C30.4799 54.0823 28.2458 54.2911 26.8612 54.1676Z" fill="#334A68"/>
<path d="M7.12824 57.0279C7.75471 59.0527 7.46097 60.9705 8.70556 62.8594C8.96277 63.2512 9.493 64.1981 9.97415 64.2478C10.5138 64.305 10.8122 63.8494 10.8038 63.3632L10.2768 61.1953C10.1879 60.1891 10.5478 59.7855 10.2397 57.8891C11.4577 59.2895 10.9035 59.9689 11.1069 61.2273L11.5135 63.5984C11.5619 64.5633 11.2935 64.4396 11.7159 65.4814C13.0447 63.9692 12.0778 62.2934 11.7496 60.5941L12.5722 61.3247C12.9519 60.2347 13.0714 58.8977 12.2831 57.9188C11.9581 57.5162 11.4488 57.3542 10.9873 57.1651C9.45979 56.5342 8.69085 56.2479 7.12824 57.0279Z" fill="#334A68"/>
<path d="M26.227 51.4867C25.758 53.2234 26.3062 53.299 27.761 53.3158L26.227 51.4867Z" fill="#293B52"/>
<path d="M26.6483 50.8916C27.311 52.6003 28.5527 53.5466 30.3889 53.3883L30.3412 52.0018L28.225 49.3319L26.6483 50.8916Z" fill="#001222"/>
<path d="M46.091 46.3374L47.1468 51.3866L47.6494 53.3926L48.0269 55.5943C48.3075 57.1677 49.1286 57.6983 50.1134 58.8977L52.1025 61.3359C52.3398 61.5915 52.6639 61.937 53.0525 61.752C53.5228 61.5249 53.645 60.3271 53.5032 59.8856C53.4039 59.5717 53.1997 59.3464 52.9922 59.1015C51.8085 57.7108 49.3438 55.7438 48.4912 53.013C47.6386 50.2821 47.1468 48.312 47.1468 48.312C46.8895 47.4429 46.6704 47.1119 46.091 46.3374Z" fill="#4E5460"/>
<path d="M29.8273 48.0801L28.6176 49.1593C29.0504 49.9956 29.821 50.9108 30.7178 51.24C30.7527 49.9182 30.6609 49.189 29.8273 48.0801Z" fill="#293B52"/>
<path d="M31.2064 46.9718C30.3643 47.7843 30.4236 48.0703 30.8774 49.1204C31.2137 48.4879 31.5089 47.6562 31.2064 46.9718Z" fill="#293B52"/>
<path d="M16.5311 46.873C15.9183 49.4713 15.7777 51.4078 16.2106 54.076C16.6632 52.942 16.9001 50.0025 16.8505 48.736C16.8061 48.1041 16.8646 47.4281 16.5311 46.873Z" fill="#7E8695"/>
<path d="M21.2863 46.0576C21.4382 46.6493 21.8505 48.2396 22.4688 48.4578C22.7352 48.538 22.8519 48.4357 23.0748 48.3539L21.2863 46.0576Z" fill="#293B52"/>
<path d="M35.4549 43.2794C34.8554 43.7465 32.683 45.5784 32.3513 46.1148C31.7095 48.2413 30.8371 51.6211 30.955 53.6398L33.81 54.022C34.6179 49.2055 34.9816 46.7269 35.4549 43.2794Z" fill="#001222"/>
<path d="M25.627 43.9186C24.7743 44.8637 24.736 45.0256 25.4674 46.0381C26.2478 45.3431 26.2376 44.7435 25.627 43.9186Z" fill="#293B52"/>
<path d="M42.8148 40.4486C40.8381 41.1137 39.5643 41.7312 38.1356 42.6456C39.0602 40.9916 41.1178 40.7395 42.8148 40.4486Z" fill="#001222"/>
<path d="M26.6768 44.9591C28.2274 44.1599 28.073 43.8276 27.5139 42.7235C26.0311 43.0323 26.3973 43.3562 26.6768 44.9591Z" fill="#293B52"/>
<path d="M19.6021 42.3366C18.9705 43.0258 17.447 44.6653 17.056 45.5394C18.0339 50.0068 16.9172 53.4283 16.2013 58.3361C16.4116 58.7012 17.4283 59.1533 17.8076 59.3239C18.8364 59.7835 19.8731 60.2059 20.8464 60.7778L16.4202 59.3664L13.2637 58.2425C14.1067 60.0335 12.9228 61.7674 13.0111 62.8187C13.2667 64.246 15.1999 66.0638 16.4526 66.6607C17.6896 67.2154 19.8907 66.6031 20.6407 65.4522C21.02 64.8683 21.8394 62.3911 22.0792 61.6125C22.6449 59.3716 22.121 57.404 22.3881 54.9345C22.3496 54.3642 21.9978 53.6749 21.8536 53.1084C21.5049 51.7334 22.0803 50.6969 21.9033 49.7874C20.6458 47.7563 20.6746 43.9758 19.6021 42.3366Z" fill="#293B52"/>
<path d="M21.2327 40.6622C20.9176 40.9813 20.3824 41.4583 20.2792 41.9018C20.1792 42.3269 20.5213 43.1222 20.6593 43.55C21.182 45.1759 22.1748 46.5544 23.3282 47.7997L25.1864 46.435L24.504 45.5059L23.7443 46.1592C23.3874 45.0422 21.9624 41.3863 21.2327 40.6622Z" fill="#001222"/>
<path d="M34.3806 37.0129L34.2741 38.4259L35.8226 37.2887L34.3806 37.0129Z" fill="#293B52"/>
<path d="M41.3631 38.0822L45.1037 40.579L45.4726 37.9006L45.7147 36.4644C45.7147 36.4644 45.2038 35.5032 44.7371 35.4463C43.9783 35.3538 41.3631 38.0822 41.3631 38.0822Z" fill="#4E5460"/>
<path d="M24.0203 44.7172C24.619 44.3047 26.0637 42.8767 25.9972 42.1118C25.3671 40.883 24.3615 39.8125 23.512 38.7024C21.3307 40.2361 23.0629 41.6635 24.0203 44.7172Z" fill="#293B52"/>
<path d="M52.1483 33.8757C51.379 33.9015 50.1426 34.0856 49.4385 34.3404C46.1105 35.7548 45.7416 38.993 46.2408 42.1274L47.9705 49.3275C48.2627 50.3602 48.3296 51.6828 49.3488 53.6241C50.6766 56.1529 52.5487 57.8372 53.6678 58.9855C54.495 59.8339 56.792 62.2371 57.7756 62.5872C58.2624 62.762 59.52 62.7765 60.0616 62.7415C60.9944 62.6809 62.2611 62.6362 63.1392 62.3881C66.0021 61.5765 68.2564 59.1953 68.3277 56.1232C68.353 55.0121 67.9229 52.1343 67.5942 50.9089C67.5942 50.9089 66.7722 47.0134 64.8242 43.6806C62.8763 40.3478 61.1197 38.9694 59.6446 37.5626C58.6588 36.623 56.5383 34.6274 55.3386 34.1793C54.201 33.7562 53.3111 33.8141 52.1483 33.8757Z" fill="#7E8695"/>
<path fill-rule="evenodd" clip-rule="evenodd" d="M53.7558 33.846C54.2649 33.8768 54.7709 33.9682 55.3387 34.1794C56.5384 34.6274 58.6589 36.6231 59.6447 37.5627C59.851 37.7595 60.0629 37.9558 60.2801 38.1569C61.6151 39.3934 63.1489 40.8141 64.8243 43.6807C66.7723 47.0134 67.5943 50.909 67.5943 50.909C67.923 52.1344 68.3531 55.0121 68.3278 56.1232C68.2565 59.1953 66.0022 61.5765 63.1393 62.3882C62.3808 62.6024 61.3326 62.665 60.4599 62.7171C60.3222 62.7253 60.1889 62.7333 60.0617 62.7415C59.9587 62.7482 59.8299 62.753 59.6853 62.7554C62.3617 61.5824 64.2716 58.8062 64.0886 55.3478C64.0181 54.0256 63.3182 50.6144 62.8683 49.1658C62.8683 49.1658 61.6706 44.5547 59.3469 40.6435C57.3483 37.2796 55.6235 35.6314 54.1223 34.1969C53.9986 34.0788 53.8765 33.9621 53.7558 33.846Z" fill="#4E5460"/>
<path d="M4.68927 61.1073L7.06035 60.7008L6.85075 58.6446C6.68354 57.6694 6.1726 57.1278 6.57275 55.9028C7.08769 54.3223 9.96529 51.6517 11.2108 50.3363L17.8544 43.3267L22.1281 38.7652C21.5265 38.5407 19.587 38.605 19.0076 38.8679C18.4822 39.1084 17.7653 39.9076 17.3413 40.3344L14.0822 43.6963L5.76933 52.1546C4.79026 53.1452 2.83077 54.8521 2.64642 56.2273C2.44426 57.7336 3.93459 59.8753 4.68927 61.1073Z" fill="#7E8695"/>
<path d="M30.7896 36.4084C28.4547 37.6573 26.7179 37.8189 24.1603 38.4168C24.9082 39.2236 26.1952 41.4914 27.1664 41.6096C28.69 41.4688 30.9129 37.2269 30.7896 36.4084Z" fill="#F2003A"/>
<path d="M28.1044 42.0993L28.6464 43.2267C30.584 42.0193 35.2101 38.6472 32.916 36.4049C32.6703 36.1787 32.337 35.9431 31.9853 36.0606C31.534 36.2128 31.1815 37.6442 30.9585 38.123C30.2056 39.7415 29.4907 40.9416 28.1044 42.0993Z" fill="#293B52"/>
<path d="M32.9047 35.5228L33.7151 36.1425L36.8691 36.2745L39.9261 33.7679C37.2368 34.0744 35.4091 34.4287 32.9047 35.5228Z" fill="#4E5460"/>
<path d="M29.2076 36.331C30.4677 36.0543 31.6776 35.4927 32.7884 34.8453C32.3802 34.7131 30.9843 34.3687 30.6361 34.4945C30.0351 34.7107 29.474 35.7801 29.2076 36.331Z" fill="#001222"/>
<path d="M46.2117 35.8562L48.6601 33.8673C48.0122 32.5197 46.4269 30.3589 44.6762 30.956C43.9794 31.194 43.7059 31.8872 43.165 32.3305L41.5924 33.3187L38.6967 35.75C33.2256 40.3786 27.9947 44.14 23.1775 49.571C21.9308 51.8366 22.7949 54.0088 24.0132 56.0506C24.4039 56.7042 24.9583 58.0944 25.9007 57.6959C26.4973 57.4431 27.0705 56.7503 26.9233 56.0747C26.685 54.9898 24.4628 53.2351 25.8577 50.8842C30.5664 46.3059 35.6624 42.0951 40.6117 37.7671C41.59 36.7841 43.7628 34.613 44.7902 34.7038C45.4596 34.7825 45.8307 35.3739 46.2117 35.8562Z" fill="#7E8695"/>
<path d="M44.3772 30.2431C45.8081 30.1285 46.7315 30.481 47.6863 31.5935C48.0195 31.9832 48.8106 33.2612 49.1924 33.4226C49.4895 33.5385 51.0336 33.1116 51.4801 33.0303L48.5487 28.1352C47.7879 28.1628 45.601 28.2497 45.0563 28.734C44.6969 29.0571 44.5083 29.7882 44.3772 30.2431Z" fill="#4E5460"/>
<path d="M43.3075 23.9007C42.0028 33.9065 32.208 40.9394 21.3632 39.5253C13.0535 38.4417 8.47553 35.7382 6.10671 32.1482C3.72735 28.5422 3.49144 23.9184 4.1594 18.7959C5.45603 8.85225 14.9491 3.57402 25.8655 4.9975C36.782 6.42098 44.6041 13.9571 43.3075 23.9007Z" fill="#7E8695" stroke="black"/>
<path fill-rule="evenodd" clip-rule="evenodd" d="M13.471 34.4904C22.422 36.8415 31.6253 31.3344 34.0272 22.19C35.8144 15.3856 33.0967 9.38119 27.9009 5.78509C28.4904 5.89854 29.0835 6.0333 29.6791 6.18976C40.4905 9.02945 44.5596 18.5522 42.3558 26.9427C39.9539 36.0871 28.5546 41.2386 17.7432 38.3989C11.2496 36.6933 7.75914 34.3787 6.06109 31.6351C7.90951 32.7413 10.3425 33.6687 13.471 34.4904Z" fill="#4E5460"/>
<path d="M34.2956 14.914C31.6421 11.1398 15.3325 9.93217 7.66239 10.1898C7.66239 10.1898 5.61522 11.8781 3.83122 17.3622C2.04723 22.8462 4.09738 26.0282 4.09738 26.0282C8.47265 27.5799 15.3279 29.0454 18.2086 29.5842C22.8754 30.6088 32.6263 31.9128 34.2955 28.9313C36.3819 25.2044 37.6126 19.6316 34.2956 14.914Z" fill="#001222"/>
</svg>
