<svg width="78" height="137" viewBox="0 0 78 137" fill="none" xmlns="http://www.w3.org/2000/svg">
<path d="M74.4783 82.6326C69.9282 79.6474 66.0394 70.0223 64.6638 65.5828L70.5792 62.0255C74.7595 68.2693 76.965 82.3753 74.4783 82.6326Z" fill="#C9B500"/>
<path d="M72.4196 76.3884C69.1689 74.4228 66.709 68.3613 65.8854 65.5762L70.4462 63.5243C73.2752 67.4989 74.2812 76.2928 72.4196 76.3884Z" fill="#EED600"/>
<path fill-rule="evenodd" clip-rule="evenodd" d="M44.7875 28.2716C45.86 27.8595 47.6535 27.1704 49.9646 27.1704C50.7333 27.8024 51.3219 28.8197 51.8986 29.8165C52.4842 30.8285 53.0575 31.8194 53.7947 32.3644C54.2673 32.5266 54.7488 32.6514 55.2242 32.7746C56.0633 32.9922 56.8832 33.2047 57.601 33.6085C59.4296 34.6457 62.5664 38.2534 63.5393 39.3724C63.5886 39.4292 63.6324 39.4795 63.6702 39.5228C64.4524 40.4196 65.1797 41.431 66.5117 43.4737C67.8436 45.5164 69.8466 51.6971 70.2326 55.4215C70.3113 56.231 70.5884 57.2761 70.8594 58.2983C71.1934 59.5581 71.5181 60.7829 71.4508 61.4889C70.9465 65.7774 64.8293 67.1817 62.0488 65.4743C61.5215 65.1509 61.0956 64.7014 60.6712 64.2534C60.377 63.943 60.0835 63.6332 59.7574 63.3666C59.4845 63.1448 59.278 63.067 59.0476 62.9802C58.809 62.8903 58.5449 62.7907 58.1547 62.5115L55.5368 60.2077C55.475 61.1894 55.4009 61.6714 54.4723 62.1337L55.9103 64.3279C56.9473 66.0747 57.7653 68.0497 57.9818 70.0747L58.9923 74.26L61.7221 90.1801C62.0917 92.3157 63.2438 95.6906 64.0657 97.9504L68.7962 105.254L72.5731 112.021L73.2563 113.822L73.6295 115.153C73.9506 115.929 74.9967 117.502 75.5646 118.134C76.0602 118.685 76.3148 119.697 76.5072 120.461C76.5199 120.512 76.5324 120.561 76.5447 120.61C76.6618 121.066 76.5014 123.832 76.4506 124.461C76.4202 124.839 76.3945 125.21 76.3693 125.574C76.1303 129.031 75.9361 131.84 72.1096 133.265C71.0295 133.718 69.9593 133.93 68.8667 133.671C64.8291 132.694 65.1469 127.543 66.1129 124.461C66.1894 124.216 66.2653 123.994 66.3367 123.785C66.6462 122.876 66.8713 122.216 66.701 121.048C66.472 119.494 66.1693 119.285 65.6515 118.928C65.455 118.793 65.2274 118.636 64.9612 118.376C64.6684 118.089 64.4328 117.718 64.2074 117.363C64.1599 117.288 64.1128 117.214 64.0657 117.141L62.9739 115.117L57.7245 110.341L56.4416 108.868C55.2284 106.601 54.1098 104.302 53.0429 101.978C52.007 99.7216 51.0198 97.4421 50.0421 95.1466C47.9988 90.629 46.3454 86.1181 44.8725 81.3883C44.7557 84.3173 45.0938 87.2421 45.4303 90.1537C45.4973 90.7343 45.5644 91.3143 45.6277 91.8937C45.7533 93.9271 46.2302 95.8692 46.8511 97.7778C47.2752 99.0815 47.7664 100.37 48.2588 101.66C48.599 102.552 48.9398 103.446 49.2592 104.347L52.3516 113.231L53.4219 116.883C53.7044 117.617 54.5216 118.25 55.3993 118.93C56.643 119.893 58.0082 120.951 58.1449 122.524C58.2567 123.799 57.504 125.672 56.8808 127.223C56.6811 127.72 56.4947 128.184 56.3543 128.584C56.0679 129.402 55.9905 130.005 55.9154 130.591C55.7944 131.534 55.6795 132.431 54.7055 134.097C53.6411 136.095 51.2374 137.153 49.1616 136.906C47.0128 136.584 46.1529 134.73 45.8469 132.827C45.623 131.421 46.029 129.344 46.385 127.523C46.5128 126.869 46.6342 126.249 46.7177 125.704C46.7382 125.57 46.761 125.434 46.7842 125.296C46.9167 124.505 47.0606 123.647 46.8511 122.891C46.4618 121.481 45.9534 121.103 45.3798 120.676C45.0448 120.427 44.6876 120.162 44.3188 119.664L39.3763 111.62L34.604 101.978L33.8561 100.363L33.1082 98.7476L30.5597 89.5957C29.9397 87.5456 29.4488 85.4619 28.9581 83.3795C28.3269 80.7005 27.6962 78.0235 26.7919 75.4227C26.757 75.2994 26.7091 75.1234 26.652 74.9137C26.3702 73.879 25.8647 72.0224 25.5922 71.6185C24.7163 71.1555 24.0505 70.2246 23.3947 69.3075C22.6986 68.3342 22.0137 67.3765 21.1006 67.0105C17.9602 67.6854 16.8721 66.7003 15.9296 65.8471C15.4832 65.443 15.0695 65.0685 14.4859 64.914C13.9832 64.9287 13.6705 65.5993 13.5545 66.0115C13.5068 66.1829 13.4848 66.3264 13.4644 66.4588C13.42 66.7479 13.3836 66.9846 13.1069 67.3454C12.2615 68.4513 10.0556 69.4166 9.24262 67.7969C8.44226 67.9151 6.80559 67.9185 6.07771 67.5972C4.30409 66.8131 3.17805 64.0669 2.88885 62.2613C2.679 61.0087 2.90615 59.726 3.08538 58.7138C3.20415 58.0431 3.30189 57.4912 3.23748 57.1456C2.76733 54.7009 4.10828 53.4322 5.6445 51.9788C5.8951 51.7417 6.15089 51.4997 6.40487 51.2469L14.567 42.9261C14.7366 42.7531 14.9606 42.5201 15.2195 42.2511C16.3964 41.0276 18.292 39.0571 19.0503 38.5698L43.9237 28.5631C44.1136 28.5306 44.4046 28.4187 44.7875 28.2716ZM14.2975 48.9504C15.4177 47.8298 16.5207 46.7264 17.4732 45.6397L16.5608 49.4574L16.767 57.7897C16.4363 57.6644 16.1058 57.5388 15.7752 57.4131C13.9413 56.716 12.1074 56.019 10.2518 55.3799L8.55817 55.6703C9.88543 53.3641 12.1237 51.125 14.2975 48.9504Z" fill="#001222"/>
<path d="M28.1155 77.3882C27.9676 78.8015 28.4688 79.814 28.7543 81.1141L30.666 88.4574C31.463 91.5175 32.2882 94.57 33.0656 97.6348C35.8888 104.671 39.4223 111.194 43.2908 117.674C43.6852 118.318 44.3577 119.528 45.0234 119.839C46.1867 120.443 48.639 119.561 49.7298 119.032C50.4606 118.635 51.5131 118.054 51.956 117.343C53.2472 116.684 49.309 107.633 47.7368 103.139C44.5444 96.0432 44.5948 91.6617 43.5167 83.8132L43.1665 80.6507C40.7121 81.5958 39.2496 83.103 37.3325 84.3505C38.5396 82.9185 40.9894 80.4811 42.2122 79.574C40.3181 79.5414 35.7547 79.0407 34.0637 78.8111C36.1265 78.7986 38.2343 78.4255 40.1002 78.1227C43.4004 77.5629 49.4825 74.9721 50.1928 74.7699C48.9747 75.542 45.6487 77.695 44.4794 78.2435L47.9575 88.9794C50.5507 95.9811 54.8372 106.387 57.1186 109.346L63.1035 114.792C63.4426 115.427 64.3263 117.185 64.8082 117.589C65.3586 118.05 65.9962 117.948 66.648 117.845C68.3164 117.578 72.286 116.489 72.369 114.423C72.3897 113.912 71.995 113.084 71.7869 112.605L70.4869 109.516L67.39 104.322L63.3766 98.5395C62.5226 96.0898 60.9943 92.18 60.5791 89.779L57.9655 74.5364L57.4543 72.5319L57.0477 70.1608C49.1533 74.6812 40.0018 76.7509 32.2785 77.2444L28.1155 77.3882Z" fill="#293B52"/>
<path d="M35.0717 53.8793C35.6525 53.9419 37.2312 54.4869 37.6238 54.1201C37.618 50.3482 37.4338 46.7049 37.5924 43.1609C38.0846 47.0006 38.3255 50.5429 38.7626 54.3987C40.4274 55.2152 42.0421 55.5165 43.2206 56.6663C40.5343 55.8071 36.473 54.4862 33.8039 54.6197C34.4581 55.8416 35.143 56.9481 35.06 58.4142L34.6219 60.4071C37.0368 61.0984 41.6002 63.2102 43.9472 61.9205C45.3371 61.1571 45.5945 58.7265 45.7864 57.2724C46.3615 52.1506 46.1072 48.1816 45.7814 43.1515C45.2734 40.975 43.6945 39.2176 41.6709 38.1752C40.1791 39.2298 37.456 41.857 37.1361 42.7161C36.1908 46.3896 35.6637 50.1391 35.0717 53.8793Z" fill="#293B52"/>
<path d="M66.4643 118.56L67.0474 121.961L66.0701 125.79L65.7683 127.965C67.1275 128.358 67.8163 128.276 68.9861 127.413C69.3831 127.166 69.6851 126.934 69.9079 126.494L70.9965 122.504C71.49 120.978 71.9976 119.942 70.9789 118.497C70.7898 118.228 70.5399 117.887 70.2263 117.758C69.6017 117.499 68.4318 118.139 67.7783 118.335L66.4643 118.56Z" fill="#FF4D00"/>
<path d="M46.1748 120.667C47.1568 122.275 47.5293 123.836 47.214 125.719L46.8104 127.706C46.7072 128.439 46.0225 130.547 46.5023 131.017C46.9279 131.434 47.4986 131.192 47.9395 130.959C49.0813 130.357 49.507 130.044 49.8524 128.753C50.181 127.517 50.9051 124.205 50.6841 123.032C50.4477 121.772 49.8411 120.847 49.1652 119.805L46.1748 120.667Z" fill="#FF4D00"/>
<path d="M72.3723 115.643C71.7236 116.506 71.647 116.62 70.7126 117.148C71.1444 117.756 71.6995 118.329 71.9873 119.022C72.7094 120.751 71.6162 122.398 71.2034 124.038C70.793 125.668 70.9235 126.746 69.4236 127.933C68.0127 129.046 67.2962 128.784 65.7385 128.81C65.9253 129.899 66.1274 131.261 66.9447 132.083C68.8114 133.958 72.7348 132.417 74.2075 130.707C75.3302 129.406 75.5058 127.686 75.7227 126.052C75.8774 124.88 76.1921 121.66 75.9677 120.606C75.7166 119.427 74.7305 118.7 74.0173 117.802C73.4814 117.127 72.9815 116.145 72.3723 115.643Z" fill="#7E8695"/>
<path d="M49.8137 119.52C50.265 120.495 51.0714 121.708 51.3531 122.743C51.5894 123.6 51.2548 124.854 51.1138 125.748C50.7807 127.864 50.5915 130.522 48.3771 131.477C47.4359 131.926 47.1807 131.963 46.1754 131.855C46.3366 132.795 46.4477 134.225 47.0761 134.983C48.5245 136.729 51.9188 136.026 53.2376 134.412C54.5817 132.767 54.5883 131.169 55.0452 129.258C55.3599 127.94 55.7177 127.158 56.1691 125.927C56.543 124.906 57.224 123.579 56.8652 122.495C55.943 119.71 54.3345 119.834 52.659 117.812L49.8137 119.52Z" fill="#7E8695"/>
<path d="M46.3811 80.1837C49.291 82.769 51.837 86.0754 53.8528 89.1887C50.7737 86.4349 48.4935 83.3247 46.3811 80.1837Z" fill="#001222"/>
<path d="M26.5753 73.4678C26.7001 74.1124 27.2245 76.2767 27.7381 76.6074C36.9018 77.9885 48.513 73.6419 55.3379 70.3945C56.3065 69.8907 57.0417 69.7347 56.7225 68.4729C56.609 68.0252 56.2375 66.7644 55.8106 66.574C46.4642 70.5023 35.2966 73.1588 26.5753 73.4678Z" fill="#001222"/>
<path d="M24.3827 69.8966L25.1909 70.8165L25.1197 69.8131L24.3827 69.8966Z" fill="#7E8695"/>
<path d="M33.4028 65.4978L31.9487 66.546C31.1316 68.5848 30.6766 70.7365 30.1319 72.858C30.9594 72.8148 33.7445 72.4312 35.1796 72.179C34.5391 69.8692 33.9763 67.4215 33.4028 65.4978Z" fill="#293B52"/>
<path d="M28.5977 64.927C28.1686 67.4767 26.8211 70.6594 26.8269 72.9016L29.3786 72.6317C30.08 70.0802 30.7745 68.5071 31.2882 66.3834C29.3319 65.6189 30.6096 65.1383 28.5977 64.927Z" fill="#001222"/>
<path d="M69.3849 57.759C68.9788 59.049 68.5506 59.6129 67.5979 60.5552C65.4896 62.6444 63.0262 63.0213 60.1717 62.9999C61.7388 65.6412 65.4038 66.1528 67.9535 64.6627C69.6616 63.6624 70.5791 62.8403 70.2464 60.7494C70.096 59.8095 70.0361 58.4666 69.3849 57.759Z" fill="#F2003A"/>
<path d="M39.2095 62.7588C42.5398 64.8404 46.0739 66.5342 49.7006 68.0209C51.3957 67.5804 52.9978 66.8631 54.6218 66.2182C51.0555 65.3655 48.1619 64.3538 45.0925 62.4986L42.0617 63.1244L39.2095 62.7588Z" fill="#001222"/>
<path d="M32.3479 63.4123L30.6882 64.9172C31.8866 66.4573 33.6981 64.534 32.3479 63.4123Z" fill="#7E8695"/>
<path d="M36.6351 61.9799L39.984 71.3432C41.8847 70.9266 47.1492 69.358 48.7279 68.4492C44.6099 66.4523 40.6241 64.2175 36.6351 61.9799Z" fill="#293B52"/>
<path d="M11.5936 65.4019C11.2539 66.6145 10.7276 66.9091 9.68224 67.4731C11.0705 68.4398 13.1582 66.7184 11.5936 65.4019Z" fill="#7E8695"/>
<path d="M25.1426 63.0787C25.3745 66 25.7901 68.8885 26.2849 71.7743L28.0896 65.0142C26.2684 64.4691 26.4476 64.1803 25.1426 63.0787Z" fill="#293B52"/>
<path d="M33.2723 60.6387C33.3456 64.3349 34.6081 67.7021 35.7499 72.0692C37.4723 71.7596 38.1151 71.7787 39.4759 71.4303C38.3469 68.1302 37.0273 64.1716 36.0716 61.7646C35.6295 61.2391 33.9526 60.7332 33.2723 60.6387Z" fill="#293B52"/>
<path d="M23.7488 61.0511C23.2029 62.7172 22.6613 64.36 21.8482 65.9098C21.5468 67.1505 23.7641 69.9263 24.7431 69.3205C25.2906 67.3538 24.9131 62.249 23.7488 61.0511Z" fill="#7E8695"/>
<path d="M13.9305 57.6788L13.9595 57.8481L14.0999 57.6497L13.9305 57.6788Z" fill="#001222"/>
<path d="M3.73964 59.2518C2.91168 61.1113 3.54776 64.7417 5.03957 66.1701C6.39963 67.4727 9.26442 67.2205 10.6102 66.0016C11.5762 65.1262 10.1233 64.4614 9.62482 63.8216L7.84458 61.3395C7.29617 61.0602 5.65214 61.3857 4.99302 61.4776L3.73964 59.2518Z" fill="#334A68"/>
<path d="M23.6709 56.5316C24.2157 56.2291 24.2009 56.1867 24.2032 55.5686C23.6592 55.8716 23.6733 55.9142 23.6709 56.5316Z" fill="#334A68"/>
<path d="M47.0673 51.6482C47.0353 55.1869 46.4648 58.4167 45.7 61.8134C48.2259 63.8497 52.4357 65.346 55.6086 65.8745C53.2374 62.7132 50.8165 59.5931 48.3379 56.5163L47.0673 51.6482Z" fill="#293B52"/>
<path d="M27.7262 53.7442C28.0347 54.4869 28.5983 55.232 28.4649 56.0584C28.2347 57.4804 26.5386 59.2339 24.8326 57.2042C24.5824 57.5039 24.4673 57.5842 24.3678 57.9888C23.9563 59.6563 25.632 63.0262 27.0748 63.8548C27.7938 64.2668 28.5977 64.1132 29.3738 64.0844C30.4601 64.0446 30.9921 64.1364 31.7165 63.1147C32.3298 62.2508 32.7554 59.3952 32.8605 58.2685L33.4626 59.9087C35.158 58.9975 33.7686 55.2552 32.5197 54.4096C31.3449 53.659 29.1107 53.8677 27.7262 53.7442Z" fill="#334A68"/>
<path d="M7.99323 56.6046C8.6197 58.6294 8.32596 60.5471 9.57055 62.4361C9.82776 62.8279 10.358 63.7748 10.8391 63.8245C11.3788 63.8817 11.6772 63.426 11.6688 62.9398L11.1418 60.772C11.0529 59.7657 11.4128 59.3621 11.1047 57.4658C12.3227 58.8661 11.7685 59.5456 11.9719 60.804L12.3785 63.175C12.4269 64.1399 12.1585 64.0163 12.5809 65.0581C13.9097 63.5459 12.9427 61.8701 12.6146 60.1707L13.4372 60.9014C13.8169 59.8113 13.9364 58.4744 13.148 57.4955C12.8231 57.0929 12.3138 56.9309 11.8523 56.7417C10.3248 56.1108 9.55584 55.8246 7.99323 56.6046Z" fill="#334A68"/>
<path d="M27.092 51.0634C26.623 52.8 27.1712 52.8757 28.626 52.8925L27.092 51.0634Z" fill="#293B52"/>
<path d="M27.5133 50.4682C28.176 52.177 29.4176 53.1233 31.2539 52.965L31.2062 51.5784L29.09 48.9086L27.5133 50.4682Z" fill="#001222"/>
<path d="M46.956 45.9141L48.0118 50.9633L48.5144 52.9692L48.8919 55.171C49.1725 56.7444 49.9936 57.275 50.9784 58.4744L52.9674 60.9125C53.2048 61.1682 53.5289 61.5136 53.9175 61.3286C54.3878 61.1015 54.51 59.9038 54.3682 59.4622C54.2689 59.1483 54.0647 58.9231 53.8572 58.6781C52.6735 57.2874 50.2088 55.3205 49.3562 52.5896C48.5035 49.8588 48.0118 47.8887 48.0118 47.8887C47.7545 47.0196 47.5354 46.6885 46.956 45.9141Z" fill="#4E5460"/>
<path d="M30.6923 47.6568L29.4826 48.7359C29.9154 49.5723 30.686 50.4874 31.5828 50.8166C31.6177 49.4949 31.5259 48.7656 30.6923 47.6568Z" fill="#293B52"/>
<path d="M32.0714 46.5485C31.2293 47.361 31.2886 47.647 31.7424 48.697C32.0787 48.0646 32.3739 47.2329 32.0714 46.5485Z" fill="#293B52"/>
<path d="M17.396 46.4497C16.7833 49.048 16.6427 50.9845 17.0756 53.6526C17.5282 52.5187 17.7651 49.5791 17.7155 48.3127C17.6711 47.6808 17.7296 47.0048 17.396 46.4497Z" fill="#7E8695"/>
<path d="M22.1513 45.6343C22.3031 46.226 22.7155 47.8162 23.3338 48.0345C23.6002 48.1147 23.7169 48.0124 23.9398 47.9306L22.1513 45.6343Z" fill="#293B52"/>
<path d="M36.3199 42.856C35.7204 43.3232 33.548 45.1551 33.2163 45.6914C32.5745 47.8179 31.7021 51.1977 31.82 53.2164L34.675 53.5986C35.4829 48.7821 35.8466 46.3036 36.3199 42.856Z" fill="#001222"/>
<path d="M26.492 43.4953C25.6393 44.4403 25.601 44.6022 26.3324 45.6148C27.1128 44.9197 27.1026 44.3202 26.492 43.4953Z" fill="#293B52"/>
<path d="M43.6798 40.0252C41.7031 40.6903 40.4293 41.3078 39.0006 42.2223C39.9252 40.5682 41.9828 40.3162 43.6798 40.0252Z" fill="#001222"/>
<path d="M27.5418 44.5358C29.0924 43.7366 28.938 43.4043 28.3789 42.3001C26.896 42.609 27.2623 42.9329 27.5418 44.5358Z" fill="#293B52"/>
<path d="M20.4671 41.9132C19.8355 42.6024 18.312 44.242 17.921 45.1161C18.8989 49.5835 17.7822 53.005 17.0663 57.9127C17.2766 58.2778 18.2933 58.7299 18.6726 58.9006C19.7014 59.3602 20.7381 59.7825 21.7114 60.3545L17.2852 58.943L14.1286 57.8191C14.9717 59.6101 13.7878 61.344 13.8761 62.3953C14.1317 63.8226 16.0649 65.6404 17.3176 66.2374C18.5546 66.792 20.7557 66.1798 21.5057 65.0288C21.885 64.445 22.7044 61.9678 22.9442 61.1892C23.5099 58.9483 22.986 56.9807 23.2531 54.5112C23.2146 53.9409 22.8628 53.2515 22.7186 52.6851C22.3699 51.31 22.9453 50.2736 22.7683 49.3641C21.5108 47.3329 21.5395 43.5524 20.4671 41.9132Z" fill="#293B52"/>
<path d="M22.0977 40.2389C21.7826 40.5579 21.2474 41.035 21.1442 41.4784C21.0442 41.9035 21.3863 42.6988 21.5243 43.1267C22.047 44.7526 23.0398 46.131 24.1932 47.3763L26.0513 46.0117L25.369 45.0826L24.6093 45.7359C24.2523 44.6189 22.8274 40.963 22.0977 40.2389Z" fill="#001222"/>
<path d="M35.2455 36.5896L35.1391 38.0026L36.6876 36.8653L35.2455 36.5896Z" fill="#293B52"/>
<path d="M42.2281 37.6589L45.9687 40.1557L46.3376 37.4773L46.5796 36.0411C46.5796 36.0411 46.0688 35.0798 45.6021 35.023C44.8433 34.9304 42.2281 37.6589 42.2281 37.6589Z" fill="#4E5460"/>
<path d="M24.8853 44.2938C25.484 43.8814 26.9287 42.4534 26.8622 41.6884C26.2321 40.4596 25.2265 39.3891 24.377 38.279C22.1957 39.8128 23.9279 41.2402 24.8853 44.2938Z" fill="#293B52"/>
<path d="M53.0133 33.4524C52.244 33.4781 51.0076 33.6622 50.3035 33.917C46.9755 35.3315 46.6066 38.5697 47.1058 41.704L48.8355 48.9042C49.1277 49.9369 49.1946 51.2595 50.2138 53.2007C51.5416 55.7295 53.4137 57.4139 54.5328 58.5622C55.36 59.4106 57.657 61.8137 58.6405 62.1639C59.1274 62.3386 60.385 62.3531 60.9266 62.3181C61.8594 62.2576 63.126 62.2128 64.0042 61.9648C66.867 61.1531 69.1214 58.7719 69.1927 55.6998C69.218 54.5888 68.7878 51.711 68.4592 50.4856C68.4592 50.4856 67.6371 46.59 65.6892 43.2573C63.7413 39.9245 61.9847 38.5461 60.5096 37.1393C59.5238 36.1997 57.4033 34.2041 56.2036 33.756C55.0659 33.3328 54.1761 33.3907 53.0133 33.4524Z" fill="#7E8695"/>
<path fill-rule="evenodd" clip-rule="evenodd" d="M54.6208 33.4226C55.1299 33.4535 55.6359 33.5448 56.2037 33.756C57.4034 34.2041 59.5239 36.1997 60.5097 37.1393C60.716 37.3362 60.9279 37.5324 61.1451 37.7335C62.4801 38.9701 64.0139 40.3908 65.6893 43.2573C67.6372 46.5901 68.4593 50.4856 68.4593 50.4856C68.7879 51.711 69.2181 54.5888 69.1928 55.6999C69.1215 58.772 66.8671 61.1532 64.0043 61.9648C63.2458 62.1791 62.1975 62.2416 61.3249 62.2937C61.1872 62.302 61.0539 62.3099 60.9267 62.3182C60.8237 62.3248 60.6949 62.3297 60.5503 62.332C63.2267 61.159 65.1366 58.3829 64.9536 54.9244C64.8831 53.6022 64.1832 50.191 63.7333 48.7424C63.7333 48.7424 62.5356 44.1313 60.2119 40.2202C58.2133 36.8562 56.4884 35.2081 54.9872 33.7736C54.8636 33.6554 54.7415 33.5387 54.6208 33.4226Z" fill="#4E5460"/>
<path d="M5.55426 60.684L7.92534 60.2774L7.71574 58.2212C7.54853 57.2461 7.03759 56.7045 7.43774 55.4794C7.95268 53.8989 10.8303 51.2284 12.0758 49.9129L18.7193 42.9034L22.9931 38.3418C22.3915 38.1174 20.452 38.1816 19.8726 38.4445C19.3472 38.6851 18.6303 39.4843 18.2063 39.9111L14.9472 43.2729L6.63432 51.7313C5.65525 52.7219 3.69576 54.4287 3.51141 55.804C3.30925 57.3103 4.79958 59.4519 5.55426 60.684Z" fill="#7E8695"/>
<path d="M31.6546 35.985C29.3197 37.2339 27.5829 37.3956 25.0253 37.9934C25.7731 38.8002 27.0602 41.0681 28.0313 41.1863C29.555 41.0455 31.7779 36.8035 31.6546 35.985Z" fill="#F2003A"/>
<path d="M28.9694 41.6759L29.5114 42.8034C31.449 41.596 36.0751 38.2239 33.781 35.9815C33.5353 35.7553 33.202 35.5198 32.8503 35.6372C32.399 35.7894 32.0465 37.2209 31.8235 37.6997C31.0706 39.3182 30.3557 40.5182 28.9694 41.6759Z" fill="#293B52"/>
<path d="M33.7696 35.0994L34.5801 35.7192L37.7341 35.8512L40.7911 33.3446C38.1018 33.651 36.2741 34.0054 33.7696 35.0994Z" fill="#4E5460"/>
<path d="M30.0726 35.9077C31.3327 35.6309 32.5426 35.0694 33.6534 34.422C33.2452 34.2897 31.8493 33.9454 31.5011 34.0712C30.9001 34.2874 30.339 35.3567 30.0726 35.9077Z" fill="#001222"/>
<path d="M47.0767 35.4329L49.5251 33.4439C48.8772 32.0963 47.2919 29.9355 45.5412 30.5326C44.8443 30.7707 44.5709 31.4638 44.03 31.9072L42.4574 32.8953L39.5617 35.3267C34.0906 39.9553 28.8596 43.7166 24.0425 49.1477C22.7958 51.4133 23.6599 53.5854 24.8782 55.6273C25.2689 56.2809 25.8233 57.671 26.7656 57.2725C27.3623 57.0198 27.9355 56.327 27.7883 55.6514C27.5499 54.5665 25.3278 52.8118 26.7227 50.4608C31.4314 45.8826 36.5274 41.6717 41.4767 37.3437C42.455 36.3608 44.6277 34.1897 45.6552 34.2805C46.3246 34.3592 46.6957 34.9506 47.0767 35.4329Z" fill="#7E8695"/>
<path d="M45.2422 29.8197C46.6731 29.7051 47.5965 30.0576 48.5512 31.1701C48.8845 31.5598 49.6756 32.8379 50.0573 32.9993C50.3545 33.1152 51.8986 32.6883 52.3451 32.607L49.4137 27.7118C48.6529 27.7394 46.466 27.8264 45.9212 28.3107C45.5619 28.6338 45.3733 29.3649 45.2422 29.8197Z" fill="#4E5460"/>
<path d="M44.1725 23.4774C42.8677 33.4832 33.0729 40.5161 22.2282 39.1019C13.9185 38.0184 9.34052 35.3149 6.9717 31.7249C4.59234 28.1189 4.35643 23.4951 5.02439 18.3726C6.32102 8.42891 15.8141 3.15068 26.7305 4.57416C37.647 5.99764 45.4691 13.5337 44.1725 23.4774Z" fill="#7E8695" stroke="black"/>
<path fill-rule="evenodd" clip-rule="evenodd" d="M14.336 34.0671C23.287 36.4181 32.4903 30.911 34.8922 21.7666C36.6794 14.9623 33.9616 8.95785 28.7659 5.36175C29.3553 5.4752 29.9485 5.60996 30.5441 5.76642C41.3555 8.60611 45.4246 18.1289 43.2208 26.5193C40.8189 35.6637 29.4196 40.8153 18.6082 37.9756C12.1146 36.27 8.62413 33.9553 6.92608 31.2118C8.7745 32.3179 11.2075 33.2454 14.336 34.0671Z" fill="#4E5460"/>
<path d="M35.1606 14.4906C32.507 10.7165 16.1975 9.50883 8.52738 9.76645C8.52738 9.76645 6.48021 11.4548 4.69621 16.9388C2.91222 22.4229 4.96237 25.6048 4.96237 25.6048C9.33764 27.1566 16.1929 28.622 19.0736 29.1608C23.7404 30.1855 33.4913 31.4895 35.1605 28.5079C37.2469 24.7811 38.4776 19.2083 35.1606 14.4906Z" fill="#4E5460"/>
<path fill-rule="evenodd" clip-rule="evenodd" d="M29.9913 30.3265C32.9953 26.0441 35.4821 20.2567 34.9898 14.2725C35.0518 14.3442 35.1088 14.4169 35.1606 14.4906C38.4776 19.2082 37.247 24.781 35.1605 28.5079C34.4809 29.7218 32.4617 30.2253 29.9913 30.3265Z" fill="#001222"/>
</svg>
